G75*
%MOIN*%
%OFA0B0*%
%FSLAX25Y25*%
%IPPOS*%
%LPD*%
%AMOC8*
5,1,8,0,0,1.08239X$1,22.5*
%
%ADD10C,0.00000*%
%ADD11C,0.03600*%
%ADD12C,0.06000*%
%ADD13C,0.03169*%
%ADD14C,0.01000*%
%ADD15C,0.03600*%
%ADD16C,0.01600*%
D10*
X0007860Y0013611D02*
X0007860Y0163217D01*
X0007862Y0163341D01*
X0007868Y0163464D01*
X0007877Y0163588D01*
X0007891Y0163710D01*
X0007908Y0163833D01*
X0007930Y0163955D01*
X0007955Y0164076D01*
X0007984Y0164196D01*
X0008016Y0164315D01*
X0008053Y0164434D01*
X0008093Y0164551D01*
X0008136Y0164666D01*
X0008184Y0164781D01*
X0008235Y0164893D01*
X0008289Y0165004D01*
X0008347Y0165114D01*
X0008408Y0165221D01*
X0008473Y0165327D01*
X0008541Y0165430D01*
X0008612Y0165531D01*
X0008686Y0165630D01*
X0008763Y0165727D01*
X0008844Y0165821D01*
X0008927Y0165912D01*
X0009013Y0166001D01*
X0009102Y0166087D01*
X0009193Y0166170D01*
X0009287Y0166251D01*
X0009384Y0166328D01*
X0009483Y0166402D01*
X0009584Y0166473D01*
X0009687Y0166541D01*
X0009793Y0166606D01*
X0009900Y0166667D01*
X0010010Y0166725D01*
X0010121Y0166779D01*
X0010233Y0166830D01*
X0010348Y0166878D01*
X0010463Y0166921D01*
X0010580Y0166961D01*
X0010699Y0166998D01*
X0010818Y0167030D01*
X0010938Y0167059D01*
X0011059Y0167084D01*
X0011181Y0167106D01*
X0011304Y0167123D01*
X0011426Y0167137D01*
X0011550Y0167146D01*
X0011673Y0167152D01*
X0011797Y0167154D01*
X0090537Y0167154D01*
X0090661Y0167152D01*
X0090784Y0167146D01*
X0090908Y0167137D01*
X0091030Y0167123D01*
X0091153Y0167106D01*
X0091275Y0167084D01*
X0091396Y0167059D01*
X0091516Y0167030D01*
X0091635Y0166998D01*
X0091754Y0166961D01*
X0091871Y0166921D01*
X0091986Y0166878D01*
X0092101Y0166830D01*
X0092213Y0166779D01*
X0092324Y0166725D01*
X0092434Y0166667D01*
X0092541Y0166606D01*
X0092647Y0166541D01*
X0092750Y0166473D01*
X0092851Y0166402D01*
X0092950Y0166328D01*
X0093047Y0166251D01*
X0093141Y0166170D01*
X0093232Y0166087D01*
X0093321Y0166001D01*
X0093407Y0165912D01*
X0093490Y0165821D01*
X0093571Y0165727D01*
X0093648Y0165630D01*
X0093722Y0165531D01*
X0093793Y0165430D01*
X0093861Y0165327D01*
X0093926Y0165221D01*
X0093987Y0165114D01*
X0094045Y0165004D01*
X0094099Y0164893D01*
X0094150Y0164781D01*
X0094198Y0164666D01*
X0094241Y0164551D01*
X0094281Y0164434D01*
X0094318Y0164315D01*
X0094350Y0164196D01*
X0094379Y0164076D01*
X0094404Y0163955D01*
X0094426Y0163833D01*
X0094443Y0163710D01*
X0094457Y0163588D01*
X0094466Y0163464D01*
X0094472Y0163341D01*
X0094474Y0163217D01*
X0094474Y0013611D01*
X0094472Y0013487D01*
X0094466Y0013364D01*
X0094457Y0013240D01*
X0094443Y0013118D01*
X0094426Y0012995D01*
X0094404Y0012873D01*
X0094379Y0012752D01*
X0094350Y0012632D01*
X0094318Y0012513D01*
X0094281Y0012394D01*
X0094241Y0012277D01*
X0094198Y0012162D01*
X0094150Y0012047D01*
X0094099Y0011935D01*
X0094045Y0011824D01*
X0093987Y0011714D01*
X0093926Y0011607D01*
X0093861Y0011501D01*
X0093793Y0011398D01*
X0093722Y0011297D01*
X0093648Y0011198D01*
X0093571Y0011101D01*
X0093490Y0011007D01*
X0093407Y0010916D01*
X0093321Y0010827D01*
X0093232Y0010741D01*
X0093141Y0010658D01*
X0093047Y0010577D01*
X0092950Y0010500D01*
X0092851Y0010426D01*
X0092750Y0010355D01*
X0092647Y0010287D01*
X0092541Y0010222D01*
X0092434Y0010161D01*
X0092324Y0010103D01*
X0092213Y0010049D01*
X0092101Y0009998D01*
X0091986Y0009950D01*
X0091871Y0009907D01*
X0091754Y0009867D01*
X0091635Y0009830D01*
X0091516Y0009798D01*
X0091396Y0009769D01*
X0091275Y0009744D01*
X0091153Y0009722D01*
X0091030Y0009705D01*
X0090908Y0009691D01*
X0090784Y0009682D01*
X0090661Y0009676D01*
X0090537Y0009674D01*
X0011797Y0009674D01*
X0011673Y0009676D01*
X0011550Y0009682D01*
X0011426Y0009691D01*
X0011304Y0009705D01*
X0011181Y0009722D01*
X0011059Y0009744D01*
X0010938Y0009769D01*
X0010818Y0009798D01*
X0010699Y0009830D01*
X0010580Y0009867D01*
X0010463Y0009907D01*
X0010348Y0009950D01*
X0010233Y0009998D01*
X0010121Y0010049D01*
X0010010Y0010103D01*
X0009900Y0010161D01*
X0009793Y0010222D01*
X0009687Y0010287D01*
X0009584Y0010355D01*
X0009483Y0010426D01*
X0009384Y0010500D01*
X0009287Y0010577D01*
X0009193Y0010658D01*
X0009102Y0010741D01*
X0009013Y0010827D01*
X0008927Y0010916D01*
X0008844Y0011007D01*
X0008763Y0011101D01*
X0008686Y0011198D01*
X0008612Y0011297D01*
X0008541Y0011398D01*
X0008473Y0011501D01*
X0008408Y0011607D01*
X0008347Y0011714D01*
X0008289Y0011824D01*
X0008235Y0011935D01*
X0008184Y0012047D01*
X0008136Y0012162D01*
X0008093Y0012277D01*
X0008053Y0012394D01*
X0008016Y0012513D01*
X0007984Y0012632D01*
X0007955Y0012752D01*
X0007930Y0012873D01*
X0007908Y0012995D01*
X0007891Y0013118D01*
X0007877Y0013240D01*
X0007868Y0013364D01*
X0007862Y0013487D01*
X0007860Y0013611D01*
D11*
X0016367Y0133485D02*
X0019967Y0133485D01*
X0019967Y0153485D02*
X0016367Y0153485D01*
D12*
X0018860Y0102674D02*
X0012860Y0102674D01*
X0012860Y0092674D02*
X0018860Y0092674D01*
X0018860Y0082674D02*
X0012860Y0082674D01*
X0012860Y0072674D02*
X0018860Y0072674D01*
X0018860Y0062674D02*
X0012860Y0062674D01*
X0012860Y0052674D02*
X0018860Y0052674D01*
X0018860Y0042674D02*
X0012860Y0042674D01*
X0012860Y0032674D02*
X0018860Y0032674D01*
X0028860Y0020674D02*
X0028860Y0014674D01*
X0038860Y0014674D02*
X0038860Y0020674D01*
X0048860Y0020674D02*
X0048860Y0014674D01*
X0058860Y0014674D02*
X0058860Y0020674D01*
X0068860Y0020674D02*
X0068860Y0014674D01*
X0078860Y0014674D02*
X0078860Y0020674D01*
X0082860Y0032674D02*
X0088860Y0032674D01*
X0088860Y0042674D02*
X0082860Y0042674D01*
X0082860Y0052674D02*
X0088860Y0052674D01*
X0088860Y0062674D02*
X0082860Y0062674D01*
X0082860Y0072674D02*
X0088860Y0072674D01*
X0088860Y0082674D02*
X0082860Y0082674D01*
X0082860Y0092674D02*
X0088860Y0092674D01*
X0088860Y0102674D02*
X0082860Y0102674D01*
X0084967Y0155133D02*
X0084967Y0161133D01*
X0059367Y0161133D02*
X0059367Y0155133D01*
D13*
X0067860Y0135674D03*
X0071860Y0132674D03*
X0071860Y0140674D03*
X0079860Y0132674D03*
X0086860Y0141674D03*
X0086860Y0119674D03*
X0062760Y0113174D03*
X0060060Y0120374D03*
X0057860Y0131674D03*
X0052860Y0118574D03*
X0049260Y0114074D03*
X0042960Y0109574D03*
X0040260Y0116774D03*
X0043860Y0132674D03*
X0027860Y0105674D03*
X0029860Y0089674D03*
X0023860Y0055674D03*
X0023860Y0048674D03*
X0023860Y0028674D03*
X0040860Y0037674D03*
X0057360Y0056474D03*
X0077860Y0077674D03*
D14*
X0075860Y0079674D01*
X0075860Y0127674D01*
X0068860Y0127674D01*
X0067860Y0128674D01*
X0067860Y0135674D01*
X0071860Y0132674D02*
X0079860Y0132674D01*
X0078860Y0140674D02*
X0071860Y0140674D01*
X0078860Y0140674D02*
X0079860Y0141674D01*
X0086860Y0141674D01*
X0085260Y0141974D01*
X0085260Y0157274D01*
X0084967Y0158133D01*
X0063660Y0153674D02*
X0063660Y0123974D01*
X0046560Y0123974D01*
X0042060Y0119474D01*
X0042060Y0118574D01*
X0040260Y0116774D01*
X0043860Y0118574D02*
X0043860Y0114074D01*
X0069960Y0087974D01*
X0069960Y0058274D01*
X0085260Y0042974D01*
X0085860Y0042674D01*
X0085860Y0052674D02*
X0085260Y0052874D01*
X0071760Y0066374D01*
X0071760Y0088874D01*
X0049260Y0111374D01*
X0049260Y0114074D01*
X0045660Y0109574D02*
X0068160Y0087074D01*
X0068160Y0056474D01*
X0076060Y0048574D01*
X0076060Y0034274D01*
X0085260Y0033074D01*
X0085860Y0032674D01*
X0068860Y0017674D02*
X0068160Y0017774D01*
X0068160Y0053774D01*
X0048360Y0073574D01*
X0048360Y0081674D01*
X0053860Y0081674D02*
X0047560Y0087974D01*
X0041160Y0087974D01*
X0037860Y0084674D01*
X0037860Y0074674D01*
X0035860Y0072674D01*
X0015860Y0072674D01*
X0015960Y0072674D01*
X0015860Y0082674D02*
X0035860Y0082674D01*
X0035860Y0086674D01*
X0038960Y0089774D01*
X0048360Y0089774D01*
X0054660Y0083474D01*
X0058160Y0081474D01*
X0058760Y0079074D01*
X0060760Y0073674D02*
X0054760Y0073674D01*
X0053860Y0074574D01*
X0053860Y0081674D01*
X0057460Y0086074D02*
X0053760Y0090074D01*
X0053460Y0098374D01*
X0053460Y0099074D01*
X0046860Y0105674D01*
X0036860Y0105674D01*
X0031860Y0114674D01*
X0020860Y0114674D01*
X0020860Y0102674D01*
X0015860Y0102674D01*
X0015960Y0102374D01*
X0027860Y0105674D02*
X0027860Y0096674D01*
X0029860Y0094674D01*
X0029860Y0089674D01*
X0042960Y0109574D02*
X0045660Y0109574D01*
X0043860Y0118574D02*
X0047460Y0122174D01*
X0054660Y0122174D01*
X0056460Y0120374D01*
X0060060Y0120374D01*
X0062760Y0117674D02*
X0063660Y0118574D01*
X0063660Y0123974D01*
X0062760Y0117674D02*
X0062760Y0113174D01*
X0052860Y0110474D02*
X0073560Y0089774D01*
X0073560Y0074474D01*
X0085260Y0062774D01*
X0085860Y0062674D01*
X0085860Y0082674D02*
X0078860Y0082674D01*
X0077860Y0083674D01*
X0077860Y0113674D01*
X0079860Y0115674D01*
X0086860Y0115674D01*
X0086860Y0119674D01*
X0063660Y0153674D02*
X0060060Y0157274D01*
X0057860Y0131674D02*
X0046860Y0131674D01*
X0043860Y0132674D01*
X0052860Y0118574D02*
X0052860Y0110474D01*
X0043860Y0084374D02*
X0043860Y0075374D01*
X0060960Y0058274D01*
X0060960Y0050774D01*
X0059860Y0049674D01*
X0059860Y0018674D01*
X0058860Y0017674D01*
X0056660Y0025674D02*
X0057360Y0028374D01*
X0057360Y0056474D01*
X0040860Y0048674D02*
X0040860Y0037674D01*
X0040860Y0048674D02*
X0023860Y0048674D01*
X0023860Y0028674D01*
X0029460Y0024274D02*
X0029460Y0017774D01*
X0028860Y0017674D01*
X0029460Y0024274D02*
X0031860Y0025674D01*
X0056660Y0025674D01*
X0023860Y0048674D02*
X0023860Y0055674D01*
D15*
X0043860Y0084374D03*
X0048360Y0081674D03*
X0057460Y0086074D03*
X0058760Y0079074D03*
X0060760Y0073674D03*
D16*
X0094474Y0005737D02*
X0007860Y0005737D01*
X0007860Y0008020D01*
X0007980Y0007900D01*
X0007980Y0007900D01*
X0010456Y0006874D01*
X0091877Y0006874D01*
X0094353Y0007900D01*
X0094474Y0008020D01*
X0094474Y0005737D01*
X0094474Y0006477D02*
X0007860Y0006477D01*
X0011165Y0012666D02*
X0010851Y0012979D01*
X0010681Y0013389D01*
X0010660Y0013611D01*
X0010660Y0027740D01*
X0011785Y0027274D01*
X0019934Y0027274D01*
X0020099Y0027342D01*
X0020482Y0026417D01*
X0021603Y0025296D01*
X0023067Y0024690D01*
X0024652Y0024690D01*
X0025653Y0025104D01*
X0024282Y0023733D01*
X0023460Y0021748D01*
X0023460Y0013600D01*
X0023926Y0012474D01*
X0011797Y0012474D01*
X0011575Y0012496D01*
X0011165Y0012666D01*
X0010959Y0012871D02*
X0023761Y0012871D01*
X0023460Y0014470D02*
X0010660Y0014470D01*
X0010660Y0016068D02*
X0023460Y0016068D01*
X0023460Y0017667D02*
X0010660Y0017667D01*
X0010660Y0019265D02*
X0023460Y0019265D01*
X0023460Y0020864D02*
X0010660Y0020864D01*
X0010660Y0022462D02*
X0023755Y0022462D01*
X0024609Y0024061D02*
X0010660Y0024061D01*
X0010660Y0025659D02*
X0021240Y0025659D01*
X0020134Y0027258D02*
X0010660Y0027258D01*
X0010660Y0037608D02*
X0010660Y0037740D01*
X0010820Y0037674D01*
X0010660Y0037608D01*
X0010660Y0047608D02*
X0010660Y0047740D01*
X0010820Y0047674D01*
X0010660Y0047608D01*
X0010660Y0057608D02*
X0010660Y0057740D01*
X0010820Y0057674D01*
X0010660Y0057608D01*
X0010660Y0057629D02*
X0010712Y0057629D01*
X0010660Y0067608D02*
X0010660Y0067740D01*
X0010820Y0067674D01*
X0010660Y0067608D01*
X0010660Y0077608D02*
X0010660Y0077740D01*
X0010820Y0077674D01*
X0010660Y0077608D01*
X0010660Y0087608D02*
X0010660Y0087740D01*
X0010820Y0087674D01*
X0010660Y0087608D01*
X0010660Y0097608D02*
X0010660Y0097740D01*
X0010820Y0097674D01*
X0010660Y0097608D01*
X0010660Y0107608D02*
X0010660Y0163217D01*
X0010681Y0163439D01*
X0010851Y0163849D01*
X0011165Y0164163D01*
X0011575Y0164332D01*
X0011797Y0164354D01*
X0054951Y0164354D01*
X0054789Y0164192D01*
X0053967Y0162207D01*
X0053967Y0154059D01*
X0054789Y0152074D01*
X0056308Y0150555D01*
X0058293Y0149733D01*
X0060441Y0149733D01*
X0060760Y0149865D01*
X0060760Y0134409D01*
X0060116Y0135052D01*
X0058652Y0135658D01*
X0057067Y0135658D01*
X0055603Y0135052D01*
X0055125Y0134574D01*
X0047385Y0134574D01*
X0047237Y0134931D01*
X0046116Y0136052D01*
X0044652Y0136658D01*
X0043067Y0136658D01*
X0041603Y0136052D01*
X0040482Y0134931D01*
X0039875Y0133467D01*
X0039875Y0131881D01*
X0040482Y0130417D01*
X0041603Y0129296D01*
X0043067Y0128690D01*
X0044652Y0128690D01*
X0045539Y0129057D01*
X0045845Y0128955D01*
X0046283Y0128774D01*
X0046389Y0128774D01*
X0046490Y0128740D01*
X0046962Y0128774D01*
X0055125Y0128774D01*
X0055603Y0128296D01*
X0057067Y0127690D01*
X0058652Y0127690D01*
X0060116Y0128296D01*
X0060760Y0128939D01*
X0060760Y0126874D01*
X0045983Y0126874D01*
X0044917Y0126433D01*
X0044101Y0125617D01*
X0039601Y0121117D01*
X0039450Y0120751D01*
X0038003Y0120152D01*
X0036882Y0119031D01*
X0036275Y0117567D01*
X0036275Y0115981D01*
X0036882Y0114517D01*
X0038003Y0113396D01*
X0039467Y0112790D01*
X0040541Y0112790D01*
X0039582Y0111831D01*
X0038975Y0110367D01*
X0038975Y0108781D01*
X0039061Y0108574D01*
X0038566Y0108574D01*
X0034475Y0115937D01*
X0034318Y0116317D01*
X0034197Y0116437D01*
X0034114Y0116587D01*
X0033793Y0116842D01*
X0033502Y0117133D01*
X0033345Y0117198D01*
X0033211Y0117304D01*
X0032816Y0117417D01*
X0032436Y0117574D01*
X0032266Y0117574D01*
X0032102Y0117621D01*
X0031694Y0117574D01*
X0020283Y0117574D01*
X0019217Y0117133D01*
X0018401Y0116317D01*
X0017960Y0115251D01*
X0017960Y0108074D01*
X0011785Y0108074D01*
X0010660Y0107608D01*
X0010660Y0108782D02*
X0017960Y0108782D01*
X0017960Y0110380D02*
X0010660Y0110380D01*
X0010660Y0111979D02*
X0017960Y0111979D01*
X0017960Y0113577D02*
X0010660Y0113577D01*
X0010660Y0115176D02*
X0017960Y0115176D01*
X0018859Y0116774D02*
X0010660Y0116774D01*
X0010660Y0118373D02*
X0036609Y0118373D01*
X0036275Y0116774D02*
X0033878Y0116774D01*
X0034898Y0115176D02*
X0036609Y0115176D01*
X0035786Y0113577D02*
X0037822Y0113577D01*
X0036674Y0111979D02*
X0039730Y0111979D01*
X0038981Y0110380D02*
X0037562Y0110380D01*
X0038451Y0108782D02*
X0038975Y0108782D01*
X0037026Y0102774D02*
X0045658Y0102774D01*
X0050560Y0097873D01*
X0050560Y0097797D01*
X0050580Y0097747D01*
X0050809Y0091426D01*
X0050002Y0092233D01*
X0048936Y0092674D01*
X0038383Y0092674D01*
X0037317Y0092233D01*
X0034217Y0089133D01*
X0033758Y0088673D01*
X0033844Y0088881D01*
X0033844Y0090467D01*
X0033237Y0091931D01*
X0032760Y0092409D01*
X0032760Y0095251D01*
X0032318Y0096317D01*
X0030760Y0097875D01*
X0030760Y0102939D01*
X0031237Y0103417D01*
X0031844Y0104881D01*
X0031844Y0106467D01*
X0031237Y0107931D01*
X0030116Y0109052D01*
X0028652Y0109658D01*
X0027067Y0109658D01*
X0025603Y0109052D01*
X0024482Y0107931D01*
X0023875Y0106467D01*
X0023875Y0104881D01*
X0024482Y0103417D01*
X0024960Y0102939D01*
X0024960Y0096097D01*
X0025401Y0095031D01*
X0026960Y0093473D01*
X0026960Y0092409D01*
X0026482Y0091931D01*
X0025875Y0090467D01*
X0025875Y0088881D01*
X0026482Y0087417D01*
X0027603Y0086296D01*
X0029067Y0085690D01*
X0030652Y0085690D01*
X0032116Y0086296D01*
X0032960Y0087139D01*
X0032960Y0085574D01*
X0023503Y0085574D01*
X0023437Y0085733D01*
X0021918Y0087252D01*
X0020899Y0087674D01*
X0021918Y0088096D01*
X0023437Y0089615D01*
X0024260Y0091600D01*
X0024260Y0093748D01*
X0023437Y0095733D01*
X0021918Y0097252D01*
X0020899Y0097674D01*
X0021918Y0098096D01*
X0023437Y0099615D01*
X0024260Y0101600D01*
X0024260Y0103748D01*
X0023760Y0104955D01*
X0023760Y0111774D01*
X0030153Y0111774D01*
X0034244Y0104411D01*
X0034401Y0104031D01*
X0034522Y0103911D01*
X0034605Y0103761D01*
X0034926Y0103506D01*
X0035217Y0103216D01*
X0035375Y0103150D01*
X0035508Y0103044D01*
X0035903Y0102931D01*
X0036283Y0102774D01*
X0036453Y0102774D01*
X0036618Y0102727D01*
X0037026Y0102774D01*
X0034446Y0103986D02*
X0031473Y0103986D01*
X0031844Y0105585D02*
X0033592Y0105585D01*
X0032704Y0107183D02*
X0031547Y0107183D01*
X0031816Y0108782D02*
X0030386Y0108782D01*
X0030928Y0110380D02*
X0023760Y0110380D01*
X0023760Y0108782D02*
X0025333Y0108782D01*
X0024172Y0107183D02*
X0023760Y0107183D01*
X0023760Y0105585D02*
X0023875Y0105585D01*
X0024161Y0103986D02*
X0024246Y0103986D01*
X0024260Y0102388D02*
X0024960Y0102388D01*
X0024960Y0100789D02*
X0023924Y0100789D01*
X0023013Y0099191D02*
X0024960Y0099191D01*
X0024960Y0097592D02*
X0021097Y0097592D01*
X0023177Y0095994D02*
X0025002Y0095994D01*
X0023992Y0094395D02*
X0026037Y0094395D01*
X0026960Y0092797D02*
X0024260Y0092797D01*
X0024093Y0091198D02*
X0026178Y0091198D01*
X0025875Y0089600D02*
X0023422Y0089600D01*
X0021689Y0088001D02*
X0026240Y0088001D01*
X0027496Y0086403D02*
X0022768Y0086403D01*
X0023503Y0079774D02*
X0034960Y0079774D01*
X0034960Y0075875D01*
X0034658Y0075574D01*
X0023503Y0075574D01*
X0023437Y0075733D01*
X0021918Y0077252D01*
X0020899Y0077674D01*
X0021918Y0078096D01*
X0023437Y0079615D01*
X0023503Y0079774D01*
X0022232Y0078410D02*
X0034960Y0078410D01*
X0034960Y0076811D02*
X0022359Y0076811D01*
X0023503Y0069774D02*
X0036436Y0069774D01*
X0037502Y0070216D01*
X0038318Y0071031D01*
X0040318Y0073031D01*
X0040760Y0074097D01*
X0040760Y0081534D01*
X0040960Y0081334D01*
X0040960Y0074797D01*
X0041401Y0073731D01*
X0055229Y0059904D01*
X0055103Y0059852D01*
X0053982Y0058731D01*
X0053375Y0057267D01*
X0053375Y0055681D01*
X0053982Y0054217D01*
X0054460Y0053739D01*
X0054460Y0028744D01*
X0054416Y0028574D01*
X0032235Y0028574D01*
X0032040Y0028625D01*
X0031663Y0028574D01*
X0031283Y0028574D01*
X0031096Y0028497D01*
X0030897Y0028470D01*
X0030568Y0028278D01*
X0030217Y0028133D01*
X0030074Y0027990D01*
X0028168Y0026878D01*
X0027817Y0026733D01*
X0027674Y0026590D01*
X0027500Y0026488D01*
X0027270Y0026186D01*
X0027001Y0025917D01*
X0026924Y0025730D01*
X0026909Y0025711D01*
X0026264Y0025444D01*
X0027237Y0026417D01*
X0027844Y0027881D01*
X0027844Y0029467D01*
X0027237Y0030931D01*
X0026760Y0031409D01*
X0026760Y0045774D01*
X0037960Y0045774D01*
X0037960Y0040409D01*
X0037482Y0039931D01*
X0036875Y0038467D01*
X0036875Y0036881D01*
X0037482Y0035417D01*
X0038603Y0034296D01*
X0040067Y0033690D01*
X0041652Y0033690D01*
X0043116Y0034296D01*
X0044237Y0035417D01*
X0044844Y0036881D01*
X0044844Y0038467D01*
X0044237Y0039931D01*
X0043760Y0040409D01*
X0043760Y0049251D01*
X0043318Y0050317D01*
X0042502Y0051133D01*
X0041436Y0051574D01*
X0026760Y0051574D01*
X0026760Y0052939D01*
X0027237Y0053417D01*
X0027844Y0054881D01*
X0027844Y0056467D01*
X0027237Y0057931D01*
X0026116Y0059052D01*
X0024652Y0059658D01*
X0023455Y0059658D01*
X0024260Y0061600D01*
X0024260Y0063748D01*
X0023437Y0065733D01*
X0021918Y0067252D01*
X0020899Y0067674D01*
X0021918Y0068096D01*
X0023437Y0069615D01*
X0023503Y0069774D01*
X0022641Y0068819D02*
X0046313Y0068819D01*
X0044715Y0070417D02*
X0037704Y0070417D01*
X0039303Y0072016D02*
X0043116Y0072016D01*
X0041518Y0073614D02*
X0040560Y0073614D01*
X0040760Y0075213D02*
X0040960Y0075213D01*
X0040960Y0076811D02*
X0040760Y0076811D01*
X0040760Y0078410D02*
X0040960Y0078410D01*
X0040960Y0080009D02*
X0040760Y0080009D01*
X0034684Y0089600D02*
X0033844Y0089600D01*
X0033541Y0091198D02*
X0036282Y0091198D01*
X0032760Y0092797D02*
X0050759Y0092797D01*
X0050701Y0094395D02*
X0032760Y0094395D01*
X0032452Y0095994D02*
X0050644Y0095994D01*
X0050586Y0097592D02*
X0031043Y0097592D01*
X0030760Y0099191D02*
X0049242Y0099191D01*
X0047643Y0100789D02*
X0030760Y0100789D01*
X0030760Y0102388D02*
X0046045Y0102388D01*
X0046760Y0117209D02*
X0046760Y0117373D01*
X0048661Y0119274D01*
X0048875Y0119274D01*
X0048875Y0118058D01*
X0048467Y0118058D01*
X0047003Y0117452D01*
X0046760Y0117209D01*
X0047760Y0118373D02*
X0048875Y0118373D01*
X0044850Y0126365D02*
X0010660Y0126365D01*
X0010660Y0124767D02*
X0043251Y0124767D01*
X0041653Y0123168D02*
X0010660Y0123168D01*
X0010660Y0121570D02*
X0040054Y0121570D01*
X0037822Y0119971D02*
X0010660Y0119971D01*
X0010660Y0127964D02*
X0056405Y0127964D01*
X0059314Y0127964D02*
X0060760Y0127964D01*
X0060760Y0135956D02*
X0046212Y0135956D01*
X0041507Y0135956D02*
X0023435Y0135956D01*
X0023527Y0135864D02*
X0022346Y0137046D01*
X0020802Y0137685D01*
X0015531Y0137685D01*
X0013988Y0137046D01*
X0012806Y0135864D01*
X0012167Y0134320D01*
X0012167Y0132650D01*
X0012806Y0131106D01*
X0013988Y0129924D01*
X0015531Y0129285D01*
X0020802Y0129285D01*
X0022346Y0129924D01*
X0023527Y0131106D01*
X0024167Y0132650D01*
X0024167Y0134320D01*
X0023527Y0135864D01*
X0024151Y0134358D02*
X0040245Y0134358D01*
X0039875Y0132759D02*
X0024167Y0132759D01*
X0023550Y0131161D02*
X0040174Y0131161D01*
X0041337Y0129562D02*
X0021472Y0129562D01*
X0021116Y0137555D02*
X0060760Y0137555D01*
X0060760Y0139153D02*
X0010660Y0139153D01*
X0010660Y0137555D02*
X0015217Y0137555D01*
X0012898Y0135956D02*
X0010660Y0135956D01*
X0010660Y0134358D02*
X0012182Y0134358D01*
X0012167Y0132759D02*
X0010660Y0132759D01*
X0010660Y0131161D02*
X0012783Y0131161D01*
X0014862Y0129562D02*
X0010660Y0129562D01*
X0010660Y0140752D02*
X0060760Y0140752D01*
X0060760Y0142350D02*
X0010660Y0142350D01*
X0010660Y0143949D02*
X0060760Y0143949D01*
X0060760Y0145547D02*
X0010660Y0145547D01*
X0010660Y0147146D02*
X0060760Y0147146D01*
X0060760Y0148745D02*
X0010660Y0148745D01*
X0010660Y0150343D02*
X0013569Y0150343D01*
X0013988Y0149924D02*
X0015531Y0149285D01*
X0020802Y0149285D01*
X0022346Y0149924D01*
X0023527Y0151106D01*
X0024167Y0152650D01*
X0024167Y0154320D01*
X0023527Y0155864D01*
X0022346Y0157046D01*
X0020802Y0157685D01*
X0015531Y0157685D01*
X0013988Y0157046D01*
X0012806Y0155864D01*
X0012167Y0154320D01*
X0012167Y0152650D01*
X0012806Y0151106D01*
X0013988Y0149924D01*
X0012460Y0151942D02*
X0010660Y0151942D01*
X0010660Y0153540D02*
X0012167Y0153540D01*
X0012506Y0155139D02*
X0010660Y0155139D01*
X0010660Y0156737D02*
X0013679Y0156737D01*
X0010660Y0158336D02*
X0053967Y0158336D01*
X0053967Y0159934D02*
X0010660Y0159934D01*
X0010660Y0161533D02*
X0053967Y0161533D01*
X0054349Y0163131D02*
X0010660Y0163131D01*
X0007860Y0168808D02*
X0007860Y0171091D01*
X0094474Y0171091D01*
X0094474Y0168808D01*
X0094353Y0168929D01*
X0091877Y0169954D01*
X0010456Y0169954D01*
X0007980Y0168929D01*
X0007860Y0168808D01*
X0007980Y0168929D02*
X0007980Y0168929D01*
X0007860Y0169525D02*
X0009420Y0169525D01*
X0022654Y0156737D02*
X0053967Y0156737D01*
X0053967Y0155139D02*
X0023828Y0155139D01*
X0024167Y0153540D02*
X0054182Y0153540D01*
X0054921Y0151942D02*
X0023873Y0151942D01*
X0022764Y0150343D02*
X0056820Y0150343D01*
X0064767Y0162207D02*
X0063945Y0164192D01*
X0063782Y0164354D01*
X0080551Y0164354D01*
X0080389Y0164192D01*
X0079567Y0162207D01*
X0079567Y0154059D01*
X0080389Y0152074D01*
X0081908Y0150555D01*
X0082360Y0150368D01*
X0082360Y0144574D01*
X0079283Y0144574D01*
X0078217Y0144133D01*
X0077658Y0143574D01*
X0074594Y0143574D01*
X0074116Y0144052D01*
X0072652Y0144658D01*
X0071067Y0144658D01*
X0069603Y0144052D01*
X0068482Y0142931D01*
X0067875Y0141467D01*
X0067875Y0139881D01*
X0067968Y0139658D01*
X0067067Y0139658D01*
X0066560Y0139448D01*
X0066560Y0154251D01*
X0066118Y0155317D01*
X0064767Y0156668D01*
X0064767Y0162207D01*
X0064767Y0161533D02*
X0079567Y0161533D01*
X0079567Y0159934D02*
X0064767Y0159934D01*
X0064767Y0158336D02*
X0079567Y0158336D01*
X0079567Y0156737D02*
X0064767Y0156737D01*
X0066192Y0155139D02*
X0079567Y0155139D01*
X0079782Y0153540D02*
X0066560Y0153540D01*
X0066560Y0151942D02*
X0080521Y0151942D01*
X0082360Y0150343D02*
X0066560Y0150343D01*
X0066560Y0148745D02*
X0082360Y0148745D01*
X0082360Y0147146D02*
X0066560Y0147146D01*
X0066560Y0145547D02*
X0082360Y0145547D01*
X0078033Y0143949D02*
X0074219Y0143949D01*
X0074594Y0137774D02*
X0074116Y0137296D01*
X0072652Y0136690D01*
X0071751Y0136690D01*
X0071764Y0136658D01*
X0072652Y0136658D01*
X0074116Y0136052D01*
X0074594Y0135574D01*
X0077125Y0135574D01*
X0077603Y0136052D01*
X0079067Y0136658D01*
X0080652Y0136658D01*
X0082116Y0136052D01*
X0083237Y0134931D01*
X0083844Y0133467D01*
X0083844Y0131881D01*
X0083237Y0130417D01*
X0082116Y0129296D01*
X0080652Y0128690D01*
X0079067Y0128690D01*
X0078476Y0128934D01*
X0078760Y0128251D01*
X0078760Y0118357D01*
X0079283Y0118574D01*
X0083003Y0118574D01*
X0082875Y0118881D01*
X0082875Y0120467D01*
X0083482Y0121931D01*
X0084603Y0123052D01*
X0086067Y0123658D01*
X0087652Y0123658D01*
X0089116Y0123052D01*
X0090237Y0121931D01*
X0090844Y0120467D01*
X0090844Y0118881D01*
X0090237Y0117417D01*
X0089760Y0116939D01*
X0089760Y0115097D01*
X0089318Y0114031D01*
X0088502Y0113216D01*
X0087436Y0112774D01*
X0081061Y0112774D01*
X0080760Y0112473D01*
X0080760Y0107649D01*
X0081785Y0108074D01*
X0089934Y0108074D01*
X0091674Y0107353D01*
X0091674Y0163217D01*
X0091652Y0163439D01*
X0091482Y0163849D01*
X0091168Y0164163D01*
X0090759Y0164332D01*
X0090537Y0164354D01*
X0089382Y0164354D01*
X0089545Y0164192D01*
X0090367Y0162207D01*
X0090367Y0154059D01*
X0089545Y0152074D01*
X0088160Y0150689D01*
X0088160Y0145448D01*
X0089116Y0145052D01*
X0090237Y0143931D01*
X0090844Y0142467D01*
X0090844Y0140881D01*
X0090237Y0139417D01*
X0089116Y0138296D01*
X0087652Y0137690D01*
X0086067Y0137690D01*
X0084603Y0138296D01*
X0084125Y0138774D01*
X0081061Y0138774D01*
X0080502Y0138216D01*
X0079436Y0137774D01*
X0074594Y0137774D01*
X0074375Y0137555D02*
X0091674Y0137555D01*
X0091674Y0139153D02*
X0089974Y0139153D01*
X0090790Y0140752D02*
X0091674Y0140752D01*
X0091674Y0142350D02*
X0090844Y0142350D01*
X0090219Y0143949D02*
X0091674Y0143949D01*
X0091674Y0145547D02*
X0088160Y0145547D01*
X0088160Y0147146D02*
X0091674Y0147146D01*
X0091674Y0148745D02*
X0088160Y0148745D01*
X0088160Y0150343D02*
X0091674Y0150343D01*
X0091674Y0151942D02*
X0089412Y0151942D01*
X0090152Y0153540D02*
X0091674Y0153540D01*
X0091674Y0155139D02*
X0090367Y0155139D01*
X0090367Y0156737D02*
X0091674Y0156737D01*
X0091674Y0158336D02*
X0090367Y0158336D01*
X0090367Y0159934D02*
X0091674Y0159934D01*
X0091674Y0161533D02*
X0090367Y0161533D01*
X0089984Y0163131D02*
X0091674Y0163131D01*
X0094353Y0168929D02*
X0094353Y0168929D01*
X0094474Y0169525D02*
X0092913Y0169525D01*
X0079949Y0163131D02*
X0064384Y0163131D01*
X0066560Y0143949D02*
X0069500Y0143949D01*
X0068241Y0142350D02*
X0066560Y0142350D01*
X0066560Y0140752D02*
X0067875Y0140752D01*
X0074212Y0135956D02*
X0077507Y0135956D01*
X0078760Y0127964D02*
X0091674Y0127964D01*
X0091674Y0129562D02*
X0082382Y0129562D01*
X0083545Y0131161D02*
X0091674Y0131161D01*
X0091674Y0132759D02*
X0083844Y0132759D01*
X0083475Y0134358D02*
X0091674Y0134358D01*
X0091674Y0135956D02*
X0082212Y0135956D01*
X0078760Y0126365D02*
X0091674Y0126365D01*
X0091674Y0124767D02*
X0078760Y0124767D01*
X0078760Y0123168D02*
X0084884Y0123168D01*
X0083332Y0121570D02*
X0078760Y0121570D01*
X0078760Y0119971D02*
X0082875Y0119971D01*
X0078797Y0118373D02*
X0078760Y0118373D01*
X0080760Y0111979D02*
X0091674Y0111979D01*
X0091674Y0113577D02*
X0088864Y0113577D01*
X0089760Y0115176D02*
X0091674Y0115176D01*
X0091674Y0116774D02*
X0089760Y0116774D01*
X0090633Y0118373D02*
X0091674Y0118373D01*
X0091674Y0119971D02*
X0090844Y0119971D01*
X0090387Y0121570D02*
X0091674Y0121570D01*
X0091674Y0123168D02*
X0088835Y0123168D01*
X0091674Y0110380D02*
X0080760Y0110380D01*
X0080760Y0108782D02*
X0091674Y0108782D01*
X0091674Y0097995D02*
X0090899Y0097674D01*
X0091674Y0097353D01*
X0091674Y0097995D01*
X0091674Y0097592D02*
X0091097Y0097592D01*
X0091674Y0087995D02*
X0090899Y0087674D01*
X0091674Y0087353D01*
X0091674Y0087995D01*
X0091674Y0077995D02*
X0090899Y0077674D01*
X0091674Y0077353D01*
X0091674Y0077995D01*
X0091674Y0067995D02*
X0090899Y0067674D01*
X0091674Y0067353D01*
X0091674Y0067995D01*
X0091674Y0057995D02*
X0090899Y0057674D01*
X0091674Y0057353D01*
X0091674Y0057995D01*
X0091674Y0057629D02*
X0091007Y0057629D01*
X0091674Y0047995D02*
X0090899Y0047674D01*
X0091674Y0047353D01*
X0091674Y0047995D01*
X0091674Y0037995D02*
X0090899Y0037674D01*
X0091674Y0037353D01*
X0091674Y0037995D01*
X0091674Y0027995D02*
X0089934Y0027274D01*
X0081785Y0027274D01*
X0079801Y0028096D01*
X0078282Y0029615D01*
X0077649Y0031142D01*
X0075871Y0031374D01*
X0075483Y0031374D01*
X0075304Y0031448D01*
X0075112Y0031473D01*
X0074776Y0031667D01*
X0074417Y0031816D01*
X0074280Y0031952D01*
X0074113Y0032049D01*
X0073876Y0032357D01*
X0073601Y0032631D01*
X0073527Y0032810D01*
X0073409Y0032963D01*
X0073308Y0033338D01*
X0073160Y0033697D01*
X0073160Y0033890D01*
X0073109Y0034077D01*
X0073160Y0034462D01*
X0073160Y0047373D01*
X0071060Y0049473D01*
X0071060Y0025608D01*
X0071918Y0025252D01*
X0073437Y0023733D01*
X0073860Y0022714D01*
X0074282Y0023733D01*
X0075801Y0025252D01*
X0077785Y0026074D01*
X0079934Y0026074D01*
X0081918Y0025252D01*
X0083437Y0023733D01*
X0084260Y0021748D01*
X0084260Y0013600D01*
X0083793Y0012474D01*
X0090537Y0012474D01*
X0090759Y0012496D01*
X0091168Y0012666D01*
X0091482Y0012979D01*
X0091652Y0013389D01*
X0091674Y0013611D01*
X0091674Y0027995D01*
X0091674Y0027258D02*
X0071060Y0027258D01*
X0071060Y0028856D02*
X0079041Y0028856D01*
X0077934Y0030455D02*
X0071060Y0030455D01*
X0071060Y0032053D02*
X0074109Y0032053D01*
X0073178Y0033652D02*
X0071060Y0033652D01*
X0071060Y0035250D02*
X0073160Y0035250D01*
X0073160Y0036849D02*
X0071060Y0036849D01*
X0071060Y0038447D02*
X0073160Y0038447D01*
X0073160Y0040046D02*
X0071060Y0040046D01*
X0071060Y0041644D02*
X0073160Y0041644D01*
X0073160Y0043243D02*
X0071060Y0043243D01*
X0071060Y0044841D02*
X0073160Y0044841D01*
X0073160Y0046440D02*
X0071060Y0046440D01*
X0071060Y0048038D02*
X0072494Y0048038D01*
X0076304Y0056031D02*
X0078002Y0056031D01*
X0078291Y0055742D02*
X0078282Y0055733D01*
X0077790Y0054545D01*
X0072860Y0059475D01*
X0072860Y0061173D01*
X0078291Y0055742D01*
X0076403Y0057629D02*
X0074705Y0057629D01*
X0074805Y0059228D02*
X0073107Y0059228D01*
X0073206Y0060826D02*
X0072860Y0060826D01*
X0076613Y0065622D02*
X0078236Y0065622D01*
X0078258Y0065675D02*
X0074660Y0069273D01*
X0074660Y0067575D01*
X0077760Y0064474D01*
X0078258Y0065675D01*
X0076712Y0067220D02*
X0075014Y0067220D01*
X0075113Y0068819D02*
X0074660Y0068819D01*
X0065260Y0068819D02*
X0057216Y0068819D01*
X0058380Y0070113D02*
X0059924Y0069474D01*
X0061595Y0069474D01*
X0063139Y0070113D01*
X0064320Y0071295D01*
X0064960Y0072839D01*
X0064960Y0074509D01*
X0064320Y0076053D01*
X0063139Y0077235D01*
X0062631Y0077445D01*
X0062960Y0078239D01*
X0062960Y0079909D01*
X0062320Y0081453D01*
X0061139Y0082635D01*
X0060812Y0082770D01*
X0060806Y0082794D01*
X0060506Y0083181D01*
X0061020Y0083695D01*
X0061660Y0085239D01*
X0061660Y0086909D01*
X0061020Y0088453D01*
X0059839Y0089635D01*
X0058295Y0090274D01*
X0057525Y0090274D01*
X0056619Y0091254D01*
X0056497Y0094636D01*
X0065260Y0085873D01*
X0065260Y0060775D01*
X0055261Y0070774D01*
X0055336Y0070774D01*
X0057720Y0070774D01*
X0058380Y0070113D01*
X0058076Y0070417D02*
X0055617Y0070417D01*
X0058814Y0067220D02*
X0065260Y0067220D01*
X0065260Y0065622D02*
X0060413Y0065622D01*
X0062011Y0064023D02*
X0065260Y0064023D01*
X0065260Y0062425D02*
X0063610Y0062425D01*
X0065208Y0060826D02*
X0065260Y0060826D01*
X0063860Y0053973D02*
X0065260Y0052573D01*
X0065260Y0024711D01*
X0064282Y0023733D01*
X0063860Y0022714D01*
X0063437Y0023733D01*
X0062760Y0024411D01*
X0062760Y0048473D01*
X0063418Y0049131D01*
X0063860Y0050197D01*
X0063860Y0053973D01*
X0063860Y0052834D02*
X0064999Y0052834D01*
X0065260Y0051235D02*
X0063860Y0051235D01*
X0063627Y0049637D02*
X0065260Y0049637D01*
X0065260Y0048038D02*
X0062760Y0048038D01*
X0062760Y0046440D02*
X0065260Y0046440D01*
X0065260Y0044841D02*
X0062760Y0044841D01*
X0062760Y0043243D02*
X0065260Y0043243D01*
X0065260Y0041644D02*
X0062760Y0041644D01*
X0062760Y0040046D02*
X0065260Y0040046D01*
X0065260Y0038447D02*
X0062760Y0038447D01*
X0062760Y0036849D02*
X0065260Y0036849D01*
X0065260Y0035250D02*
X0062760Y0035250D01*
X0062760Y0033652D02*
X0065260Y0033652D01*
X0065260Y0032053D02*
X0062760Y0032053D01*
X0062760Y0030455D02*
X0065260Y0030455D01*
X0065260Y0028856D02*
X0062760Y0028856D01*
X0062760Y0027258D02*
X0065260Y0027258D01*
X0065260Y0025659D02*
X0062760Y0025659D01*
X0063110Y0024061D02*
X0064609Y0024061D01*
X0071060Y0025659D02*
X0076784Y0025659D01*
X0074609Y0024061D02*
X0073110Y0024061D01*
X0073860Y0012634D02*
X0073926Y0012474D01*
X0073793Y0012474D01*
X0073860Y0012634D01*
X0080935Y0025659D02*
X0091674Y0025659D01*
X0091674Y0024061D02*
X0083110Y0024061D01*
X0083964Y0022462D02*
X0091674Y0022462D01*
X0091674Y0020864D02*
X0084260Y0020864D01*
X0084260Y0019265D02*
X0091674Y0019265D01*
X0091674Y0017667D02*
X0084260Y0017667D01*
X0084260Y0016068D02*
X0091674Y0016068D01*
X0091674Y0014470D02*
X0084260Y0014470D01*
X0083958Y0012871D02*
X0091374Y0012871D01*
X0094353Y0007900D02*
X0094353Y0007900D01*
X0079322Y0036773D02*
X0078960Y0036820D01*
X0078960Y0038937D01*
X0079801Y0038096D01*
X0080820Y0037674D01*
X0079801Y0037252D01*
X0079322Y0036773D01*
X0079398Y0036849D02*
X0078960Y0036849D01*
X0078960Y0038447D02*
X0079450Y0038447D01*
X0063860Y0012634D02*
X0063926Y0012474D01*
X0063793Y0012474D01*
X0063860Y0012634D01*
X0054460Y0028856D02*
X0027844Y0028856D01*
X0027585Y0027258D02*
X0028819Y0027258D01*
X0026784Y0025659D02*
X0026479Y0025659D01*
X0027435Y0030455D02*
X0054460Y0030455D01*
X0054460Y0032053D02*
X0026760Y0032053D01*
X0026760Y0033652D02*
X0054460Y0033652D01*
X0054460Y0035250D02*
X0044070Y0035250D01*
X0044830Y0036849D02*
X0054460Y0036849D01*
X0054460Y0038447D02*
X0044844Y0038447D01*
X0044122Y0040046D02*
X0054460Y0040046D01*
X0054460Y0041644D02*
X0043760Y0041644D01*
X0043760Y0043243D02*
X0054460Y0043243D01*
X0054460Y0044841D02*
X0043760Y0044841D01*
X0043760Y0046440D02*
X0054460Y0046440D01*
X0054460Y0048038D02*
X0043760Y0048038D01*
X0043600Y0049637D02*
X0054460Y0049637D01*
X0054460Y0051235D02*
X0042254Y0051235D01*
X0037960Y0044841D02*
X0026760Y0044841D01*
X0026760Y0043243D02*
X0037960Y0043243D01*
X0037960Y0041644D02*
X0026760Y0041644D01*
X0026760Y0040046D02*
X0037597Y0040046D01*
X0036875Y0038447D02*
X0026760Y0038447D01*
X0026760Y0036849D02*
X0036889Y0036849D01*
X0037649Y0035250D02*
X0026760Y0035250D01*
X0020960Y0037649D02*
X0020899Y0037674D01*
X0020960Y0037699D01*
X0020960Y0037649D01*
X0026760Y0052834D02*
X0054460Y0052834D01*
X0053893Y0054432D02*
X0027658Y0054432D01*
X0027844Y0056031D02*
X0053375Y0056031D01*
X0053526Y0057629D02*
X0027362Y0057629D01*
X0025691Y0059228D02*
X0054479Y0059228D01*
X0054306Y0060826D02*
X0023939Y0060826D01*
X0024260Y0062425D02*
X0052707Y0062425D01*
X0051109Y0064023D02*
X0024146Y0064023D01*
X0023483Y0065622D02*
X0049510Y0065622D01*
X0047912Y0067220D02*
X0021950Y0067220D01*
X0032223Y0086403D02*
X0032960Y0086403D01*
X0055760Y0111675D02*
X0055760Y0115839D01*
X0056237Y0116317D01*
X0056716Y0117474D01*
X0057325Y0117474D01*
X0057803Y0116996D01*
X0059267Y0116390D01*
X0059860Y0116390D01*
X0059860Y0115909D01*
X0059382Y0115431D01*
X0058775Y0113967D01*
X0058775Y0112381D01*
X0059382Y0110917D01*
X0060503Y0109796D01*
X0061967Y0109190D01*
X0063552Y0109190D01*
X0065016Y0109796D01*
X0066137Y0110917D01*
X0066744Y0112381D01*
X0066744Y0113967D01*
X0066137Y0115431D01*
X0065660Y0115909D01*
X0065660Y0116473D01*
X0066118Y0116931D01*
X0066560Y0117997D01*
X0066560Y0125873D01*
X0067217Y0125216D01*
X0068283Y0124774D01*
X0072960Y0124774D01*
X0072960Y0094475D01*
X0055760Y0111675D01*
X0055760Y0111979D02*
X0058942Y0111979D01*
X0058775Y0113577D02*
X0055760Y0113577D01*
X0055760Y0115176D02*
X0059276Y0115176D01*
X0058339Y0116774D02*
X0056427Y0116774D01*
X0057055Y0110380D02*
X0059919Y0110380D01*
X0058653Y0108782D02*
X0072960Y0108782D01*
X0072960Y0110380D02*
X0065600Y0110380D01*
X0066577Y0111979D02*
X0072960Y0111979D01*
X0072960Y0113577D02*
X0066744Y0113577D01*
X0066243Y0115176D02*
X0072960Y0115176D01*
X0072960Y0116774D02*
X0065961Y0116774D01*
X0066560Y0118373D02*
X0072960Y0118373D01*
X0072960Y0119971D02*
X0066560Y0119971D01*
X0066560Y0121570D02*
X0072960Y0121570D01*
X0072960Y0123168D02*
X0066560Y0123168D01*
X0066560Y0124767D02*
X0072960Y0124767D01*
X0072960Y0107183D02*
X0060252Y0107183D01*
X0061850Y0105585D02*
X0072960Y0105585D01*
X0072960Y0103986D02*
X0063449Y0103986D01*
X0065047Y0102388D02*
X0072960Y0102388D01*
X0072960Y0100789D02*
X0066646Y0100789D01*
X0068244Y0099191D02*
X0072960Y0099191D01*
X0072960Y0097592D02*
X0069843Y0097592D01*
X0071441Y0095994D02*
X0072960Y0095994D01*
X0080760Y0097649D02*
X0080760Y0097699D01*
X0080820Y0097674D01*
X0080760Y0097649D01*
X0080760Y0087699D02*
X0080820Y0087674D01*
X0080760Y0087649D01*
X0080760Y0087699D01*
X0065260Y0084804D02*
X0061480Y0084804D01*
X0061660Y0086403D02*
X0064730Y0086403D01*
X0065260Y0083206D02*
X0060531Y0083206D01*
X0062166Y0081607D02*
X0065260Y0081607D01*
X0065260Y0080009D02*
X0062919Y0080009D01*
X0062960Y0078410D02*
X0065260Y0078410D01*
X0065260Y0076811D02*
X0063562Y0076811D01*
X0064668Y0075213D02*
X0065260Y0075213D01*
X0065260Y0073614D02*
X0064960Y0073614D01*
X0065260Y0072016D02*
X0064619Y0072016D01*
X0065260Y0070417D02*
X0063443Y0070417D01*
X0063131Y0088001D02*
X0061207Y0088001D01*
X0061533Y0089600D02*
X0059874Y0089600D01*
X0059934Y0091198D02*
X0056670Y0091198D01*
X0056563Y0092797D02*
X0058336Y0092797D01*
X0056737Y0094395D02*
X0056505Y0094395D01*
X0053885Y0022774D02*
X0053860Y0022714D01*
X0053835Y0022774D01*
X0053885Y0022774D01*
X0053860Y0012634D02*
X0053926Y0012474D01*
X0053793Y0012474D01*
X0053860Y0012634D01*
X0043926Y0012474D02*
X0043793Y0012474D01*
X0043860Y0012634D01*
X0043926Y0012474D01*
X0043860Y0022714D02*
X0043885Y0022774D01*
X0043835Y0022774D01*
X0043860Y0022714D01*
X0033885Y0022774D02*
X0033860Y0022714D01*
X0033835Y0022774D01*
X0033885Y0022774D01*
X0033860Y0012634D02*
X0033926Y0012474D01*
X0033793Y0012474D01*
X0033860Y0012634D01*
M02*
