%
M48
M72
T01C0.01969
T02C0.02400
T03C0.04000
%
T01
X23860Y28674
X23860Y48674
X23860Y55674
X40860Y37674
X57360Y56474
X77860Y77674
X62760Y113174
X60060Y120374
X57860Y131674
X52860Y118574
X49260Y114074
X42960Y109574
X40260Y116774
X43860Y132674
X27860Y105674
X29860Y89674
X67860Y135674
X71860Y132674
X71860Y140674
X79860Y132674
X86860Y141674
X86860Y119674
T02
X60760Y73674
X58760Y79074
X57460Y86074
X48360Y81674
X43860Y84374
X18167Y133485
X18167Y153485
T03
X15860Y32674
X15860Y42674
X15860Y52674
X15860Y62674
X15860Y72674
X15860Y82674
X15860Y92674
X15860Y102674
X59367Y158133
X84967Y158133
X85860Y102674
X85860Y92674
X85860Y82674
X85860Y72674
X85860Y62674
X85860Y52674
X85860Y42674
X85860Y32674
X78860Y17674
X68860Y17674
X58860Y17674
X48860Y17674
X38860Y17674
X28860Y17674
M30
